<svg xmlns="http://www.w3.org/2000/svg" viewBox="0 0 26 50" width="26" height="50" preserveAspectRatio="xMidYMid meet" style="width: 100%; height: 100%; transform: translate3d(0px, 0px, 0px);"><defs><clipPath id="__lottie_element_13"><rect width="26" height="50" x="0" y="0"></rect></clipPath></defs><g clip-path="url(#__lottie_element_13)"><g style="display: block;" transform="matrix(0.5656854510307312,0.5656854510307312,-0.5656854510307312,0.5656854510307312,212.95333862304688,-165.53028869628906)" opacity="1"><g opacity="1" transform="matrix(1,0,0,1,-0.1379999965429306,352.6549987792969)"><path fill="rgb(0,0,0)" fill-opacity="1" d="M0 0"></path><path stroke-linecap="butt" stroke-linejoin="miter" fill-opacity="0" stroke-miterlimit="4" stroke="rgb(255,255,255)" stroke-opacity="1" stroke-width="1" d=" M9.97249984741211,-9.97249984741211 C9.97249984741211,-9.97249984741211 9.97249984741211,9.97249984741211 9.97249984741211,9.97249984741211 C9.97249984741211,9.97249984741211 -9.97249984741211,9.97249984741211 -9.97249984741211,9.97249984741211 C-9.97249984741211,9.97249984741211 -9.97249984741211,-9.97249984741211 -9.97249984741211,-9.97249984741211 C-9.97249984741211,-9.97249984741211 9.97249984741211,-9.97249984741211 9.97249984741211,-9.97249984741211z"></path></g></g><g style="display: block;" transform="matrix(0.5656854510307312,0.5656854510307312,-0.5656854510307312,0.5656854510307312,212.93185424804688,-172.25872802734375)" opacity="0.4716880671922782"><g opacity="1" transform="matrix(1,0,0,1,-0.1379999965429306,352.6549987792969)"><path fill="rgb(0,0,0)" fill-opacity="1" d="M0 0"></path><path stroke-linecap="butt" stroke-linejoin="miter" fill-opacity="0" stroke-miterlimit="4" stroke="rgb(255,255,255)" stroke-opacity="1" stroke-width="1" d=" M9.97249984741211,-9.97249984741211 C9.97249984741211,-9.97249984741211 9.97249984741211,9.97249984741211 9.97249984741211,9.97249984741211 C9.97249984741211,9.97249984741211 -9.97249984741211,9.97249984741211 -9.97249984741211,9.97249984741211 C-9.97249984741211,9.97249984741211 -9.97249984741211,-9.97249984741211 -9.97249984741211,-9.97249984741211 C-9.97249984741211,-9.97249984741211 9.97249984741211,-9.97249984741211 9.97249984741211,-9.97249984741211z"></path></g></g><g style="display: block;" transform="matrix(0.5656854510307312,0.5656854510307312,-0.5656854510307312,0.5656854510307312,213.06985473632812,-183.25872802734375)" opacity="0.09340080541994361"><g opacity="1" transform="matrix(1,0,0,1,-0.1379999965429306,352.6549987792969)"><path fill="rgb(0,0,0)" fill-opacity="1" d="M0 0"></path><path stroke-linecap="butt" stroke-linejoin="miter" fill-opacity="0" stroke-miterlimit="4" stroke="rgb(255,255,255)" stroke-opacity="1" stroke-width="1" d=" M9.97249984741211,-9.97249984741211 C9.97249984741211,-9.97249984741211 9.97249984741211,9.97249984741211 9.97249984741211,9.97249984741211 C9.97249984741211,9.97249984741211 -9.97249984741211,9.97249984741211 -9.97249984741211,9.97249984741211 C-9.97249984741211,9.97249984741211 -9.97249984741211,-9.97249984741211 -9.97249984741211,-9.97249984741211 C-9.97249984741211,-9.97249984741211 9.97249984741211,-9.97249984741211 9.97249984741211,-9.97249984741211z"></path></g></g></g></svg>