<svg height="75" viewBox="0 0 65 75" width="65"><title></title><path d="m33.667 69.326v-17.766l8.239 1.094a1.92 1.92 0 0 0 1.9 1.782h4.525a1.922 1.922 0 0 0 1.919-1.905v-4.553c0-.988-.792-1.817-1.778-1.887l-1.091-8.276h8.097a37.621 37.621 0 0 0 4.964 12.615zm-28.484-18.896a37.945 37.945 0 0 0 4.95-12.615h8.12l-1.11 8.276a1.89 1.89 0 0 0 -1.761 1.887v4.553c0 1.04.845 1.905 1.902 1.905h4.527a1.92 1.92 0 0 0 1.903-1.765l8.244-1.111v17.767zm0-39.92 10.547-6.5 12.717 8.03 3.51 3.504v6.85l-8.254-1.091c-.071-.987-.9-1.761-1.906-1.761h-4.533a1.895 1.895 0 0 0 -1.905 1.902v4.525c0 1.004.777 1.831 1.764 1.902l1.094 8.224h-7.814a37.63 37.63 0 0 0 -5.221-25.587zm52.822 20.097a34.899 34.899 0 0 0 5.978 19.587l.93 1.384-1.368.994-30.733 21.912-32.1-22.888.947-1.42a34.915 34.915 0 0 0 5.96-19.57c0-7.043-2.068-13.821-5.995-19.623l-.999-1.473 15.235-9.51 14.866 9.563 2.087 2.111 2.384-2.342 14.586-9.332 15.217 9.51-.982 1.472a34.867 34.867 0 0 0 -6.013 19.624zm-12.401 7.196c-.017-.6-.017-1.111 0-1.623l1.14-8.628c.034-.741.7-1.394 1.507-1.394.123 0 .228-.088.228-.211v-4.537c0-.124-.105-.212-.228-.212h-4.506a.203.203 0 0 0 -.21.212c0 .83-.65 1.5-1.455 1.535l-8.435 1.13c-.578.035-1.087.035-1.595 0l-8.592-1.13c-.736-.036-1.368-.706-1.368-1.535 0-.124-.105-.212-.228-.212h-4.506a.203.203 0 0 0 -.21.212v4.535c0 .123.088.21.21.21.824 0 1.49.654 1.526 1.483l1.122 8.47c.035.582.035 1.093 0 1.605l-1.14 8.628c-.017.759-.684 1.393-1.508 1.393a.214.214 0 0 0 -.21.212v4.554c0 .105.088.211.21.211h4.506c.123 0 .228-.106.228-.211 0-.83.632-1.5 1.456-1.536l8.416-1.146c.316 0 .614-.018.894-.018.246 0 .474.018.72.018l8.573 1.146c.737.036 1.386.706 1.386 1.536 0 .105.088.211.21.211h4.506c.123 0 .228-.106.228-.211v-4.553c0-.105-.105-.212-.228-.212a1.512 1.512 0 0 1 -1.507-1.464l-1.14-8.47zm-8.429-25.763-3.508 3.505v6.868l8.25-1.11c.07-.986.899-1.76 1.903-1.76h4.53a1.91 1.91 0 0 1 1.922 1.902v4.525a1.92 1.92 0 0 1 -1.78 1.902l-1.093 8.224h7.809a38.031 38.031 0 0 1 -.423-5.688c0-7.08 1.938-13.93 5.657-19.9l-10.54-6.497-12.727 8.03zm3.898 16.607-1.807 2.574v11.468l1.79 2.574h-6.687l1.77-2.574v-5.498h-7.242v5.498l1.772 2.574h-6.687l1.79-2.574v-11.486l-1.755-2.556h6.687l-1.807 2.574v4.885h7.243v-4.903l-1.754-2.556z" fill="#fff" fill-rule="evenodd"></path></svg>