<svg xmlns="http://www.w3.org/2000/svg" viewBox="0 0 124 103" width="124" height="103" preserveAspectRatio="xMidYMid meet" style="width: 100%; height: 100%; transform: translate3d(0px, 0px, 0px);"><defs><clipPath id="__lottie_element_2"><rect width="124" height="103" x="0" y="0"></rect></clipPath></defs><g clip-path="url(#__lottie_element_2)"><g transform="matrix(0.9973303079605103,-0.07302237302064896,0.07302237302064896,0.9973303079605103,5.594871520996094,30.120952606201172)" opacity="0.2" style="display: block;"><g opacity="1" transform="matrix(1,0,0,1,25.43000030517578,20.70199966430664)"><path fill="rgb(249,246,239)" fill-opacity="1" d=" M1.2519999742507935,-5.321000099182129 C-3.1649999618530273,-6.875999927520752 -7.73199987411499,-8.484000205993652 -11.763999938964844,-10.788999557495117 C-22.198999404907227,-16.753999710083008 -24.12299919128418,-20.490999221801758 -24.141000747680664,-20.527000427246094 C-24.19700050354004,-20.64299964904785 -24.320999145507812,-20.714000701904297 -24.447999954223633,-20.701000213623047 C-24.57699966430664,-20.690000534057617 -24.684999465942383,-20.600000381469727 -24.719999313354492,-20.47599983215332 C-28.20400047302246,-8.0600004196167 -17.75200080871582,-2.9260001182556152 -17.66699981689453,-2.885999917984009 C-13.824999809265137,-0.6859999895095825 -8.366999626159668,0 -5.2789998054504395,0.21400000154972076 C-7.071000099182129,0.515999972820282 -9.824000358581543,0.7850000262260437 -13.154999732971191,0.47099998593330383 C-18.663000106811523,-0.04899999871850014 -23.5939998626709,-1.6260000467300415 -23.643999099731445,-1.6419999599456787 C-23.759000778198242,-1.6799999475479126 -23.88599967956543,-1.6460000276565552 -23.9689998626709,-1.555999994277954 C-24.049999237060547,-1.465999960899353 -24.07200050354004,-1.3359999656677246 -24.02400016784668,-1.2239999771118164 C-23.937000274658203,-1.0230000019073486 -21.81599998474121,3.740000009536743 -14.107000350952148,5.989999771118164 C-8.46399974822998,7.63700008392334 -3.4700000286102295,6.446000099182129 -0.800000011920929,5.486999988555908 C-2.0360000133514404,6.366000175476074 -3.882999897003174,7.447999954223633 -6.11299991607666,8.034000396728516 C-10.319000244140625,9.138999938964844 -14.020999908447266,9.520999908447266 -14.057999610900879,9.52400016784668 C-14.192999839782715,9.538000106811523 -14.303999900817871,9.637999534606934 -14.331000328063965,9.770999908447266 C-14.357999801635742,9.904000282287598 -14.295000076293945,10.039999961853027 -14.177000045776367,10.104999542236328 C-4.671000003814697,15.342000007629395 3.2179999351501465,11.336000442504883 5.947000026702881,9.562999725341797 C5.052000045776367,11.12399959564209 2.930000066757202,13.961000442504883 -1.1449999809265137,15.182999610900879 C-1.305999994277954,15.230999946594238 -1.3990000486373901,15.39799976348877 -1.3559999465942383,15.5600004196167 C-1.312000036239624,15.722000122070312 -1.1480000019073486,15.821000099182129 -0.984000027179718,15.781999588012695 C-0.9039999842643738,15.762999534606934 7.085000038146973,13.901000022888184 13.01200008392334,15.222000122070312 C18.94700050354004,16.54599952697754 24.884000778198242,20.606000900268555 24.94300079345703,20.64699935913086 C24.996000289916992,20.683000564575195 25.058000564575195,20.70199966430664 25.1200008392334,20.70199966430664 C25.170000076293945,20.70199966430664 25.22100067138672,20.690000534057617 25.267000198364258,20.665000915527344 C25.3700008392334,20.610000610351562 25.433000564575195,20.50200080871582 25.43000030517578,20.38599967956543 C25.42799949645996,20.29199981689453 25.1560001373291,10.9350004196167 18.378000259399414,3.6640000343322754 C14.277000427246094,-0.7360000014305115 7.949999809265137,-2.9630000591278076 1.2519999742507935,-5.321000099182129z"></path><g opacity="1" transform="matrix(1,0,0,1,0,0)"></g></g></g><g transform="matrix(0.9973339438438416,0.07297234982252121,-0.07297234982252121,0.9973339438438416,67.66181182861328,26.370708465576172)" opacity="0.2" style="display: block;"><g opacity="1" transform="matrix(1,0,0,1,25.43000030517578,20.70199966430664)"><path fill="rgb(249,246,239)" fill-opacity="1" d=" M23.643999099731445,-1.6419999599456787 C23.5939998626709,-1.6260000467300415 18.666000366210938,-0.04899999871850014 13.156000137329102,0.47200000286102295 C9.824999809265137,0.7850000262260437 7.072000026702881,0.5170000195503235 5.28000020980835,0.21400000154972076 C8.366999626159668,0.0010000000474974513 13.819999694824219,-0.6830000281333923 17.645999908447266,-2.875 C17.75200080871582,-2.9260001182556152 28.20400047302246,-8.0600004196167 24.719999313354492,-20.475000381469727 C24.684999465942383,-20.600000381469727 24.57699966430664,-20.687999725341797 24.448999404907227,-20.701000213623047 C24.31999969482422,-20.71299934387207 24.198999404907227,-20.64299964904785 24.142000198364258,-20.527999877929688 C24.12299919128418,-20.490999221801758 22.198999404907227,-16.753999710083008 11.763999938964844,-10.788000106811523 C7.73199987411499,-8.482999801635742 3.1649999618530273,-6.875 -1.2519999742507935,-5.321000099182129 C-7.951000213623047,-2.9630000591278076 -14.277000427246094,-0.7360000014305115 -18.378000259399414,3.6640000343322754 C-25.156999588012695,10.935999870300293 -25.42799949645996,20.29199981689453 -25.43000030517578,20.38599967956543 C-25.43199920654297,20.50200080871582 -25.3700008392334,20.610000610351562 -25.267000198364258,20.665000915527344 C-25.219999313354492,20.69099998474121 -25.170000076293945,20.70199966430664 -25.1200008392334,20.70199966430664 C-25.058000564575195,20.70199966430664 -24.996999740600586,20.68400001525879 -24.944000244140625,20.648000717163086 C-24.884000778198242,20.60700035095215 -18.950000762939453,16.547000885009766 -13.01200008392334,15.222999572753906 C-7.0879998207092285,13.902999877929688 0.9039999842643738,15.763999938964844 0.984000027179718,15.781999588012695 C1.1469999551773071,15.821000099182129 1.312000036239624,15.722999572753906 1.3559999465942383,15.560999870300293 C1.3990000486373901,15.39900016784668 1.3049999475479126,15.232000350952148 1.1449999809265137,15.184000015258789 C-2.930000066757202,13.961000442504883 -5.052000045776367,11.12399959564209 -5.947000026702881,9.564000129699707 C-3.2179999351501465,11.336999893188477 4.671999931335449,15.340999603271484 14.175999641418457,10.105999946594238 C14.295000076293945,10.039999961853027 14.357999801635742,9.904000282287598 14.331000328063965,9.772000312805176 C14.303000450134277,9.638999938964844 14.192999839782715,9.538000106811523 14.057999610900879,9.524999618530273 C14.020999908447266,9.522000312805176 10.319000244140625,9.140000343322754 6.11299991607666,8.034000396728516 C3.881999969482422,7.447999954223633 2.0360000133514404,6.366000175476074 0.800000011920929,5.486999988555908 C3.4700000286102295,6.447000026702881 8.46399974822998,7.638000011444092 14.107999801635742,5.989999771118164 C21.816999435424805,3.740000009536743 23.937999725341797,-1.0219999551773071 24.02400016784668,-1.2239999771118164 C24.072999954223633,-1.3359999656677246 24.049999237060547,-1.465999960899353 23.968000411987305,-1.555999994277954 C23.886999130249023,-1.6460000276565552 23.759000778198242,-1.6799999475479126 23.643999099731445,-1.6419999599456787z"></path><g opacity="1" transform="matrix(1,0,0,1,0,0)"></g></g></g><g transform="matrix(1,0,0,1,45.005001068115234,14.45810317993164)" opacity="1" style="display: block;"><g opacity="1" transform="matrix(1,0,0,1,16.934999465942383,40.25)"><path fill="rgb(249,246,239)" fill-opacity="1" d=" M8.324999809265137,-11.979999542236328 C8.444999694824219,-11.979999542236328 8.5649995803833,-12.020000457763672 8.675000190734863,-12.0600004196167 C13.1850004196167,-12.630000114440918 16.684999465942383,-16.469999313354492 16.684999465942383,-21.1299991607666 C16.684999465942383,-26.18000030517578 12.574999809265137,-30.280000686645508 7.525000095367432,-30.280000686645508 C7.224999904632568,-30.280000686645508 6.934999942779541,-30.260000228881836 6.644999980926514,-30.229999542236328 C6.965000152587891,-31.049999237060547 7.144999980926514,-31.93000030517578 7.144999980926514,-32.849998474121094 C7.144999980926514,-36.790000915527344 3.934999942779541,-40 -0.004999999888241291,-40 C-3.944999933242798,-40 -7.15500020980835,-36.790000915527344 -7.15500020980835,-32.849998474121094 C-7.15500020980835,-31.93000030517578 -6.974999904632568,-31.049999237060547 -6.65500020980835,-30.229999542236328 C-6.945000171661377,-30.260000228881836 -7.235000133514404,-30.280000686645508 -7.534999847412109,-30.280000686645508 C-12.585000038146973,-30.280000686645508 -16.684999465942383,-26.18000030517578 -16.684999465942383,-21.1299991607666 C-16.684999465942383,-16.399999618530273 -13.085000038146973,-12.489999771118164 -8.46500015258789,-12.020000457763672 C-8.385000228881836,-12 -8.295000076293945,-11.979999542236328 -8.204999923706055,-11.979999542236328 C-5.114999771118164,-11.800000190734863 -2.424999952316284,-9.279999732971191 -1.5049999952316284,-5.71999979019165 C-1.4850000143051147,-5.610000133514404 -1.434999942779541,-5.519999980926514 -1.3849999904632568,-5.429999828338623 C-1.3849999904632568,-5.429999828338623 -2.2750000953674316,-5.429999828338623 -2.2750000953674316,-5.429999828338623 C-2.9549999237060547,-5.429999828338623 -3.515000104904175,-4.880000114440918 -3.515000104904175,-4.190000057220459 C-3.515000104904175,-3.509999990463257 -2.9549999237060547,-2.950000047683716 -2.2750000953674316,-2.950000047683716 C-2.2750000953674316,-2.950000047683716 -1.2450000047683716,-2.950000047683716 -1.2450000047683716,-2.950000047683716 C-1.2450000047683716,-2.950000047683716 -1.2450000047683716,38.7599983215332 -1.2450000047683716,38.7599983215332 C-1.2450000047683716,39.441001892089844 -0.6949999928474426,40 -0.004999999888241291,40 C0.6850000023841858,40 1.2350000143051147,39.441001892089844 1.2350000143051147,38.7599983215332 C1.2350000143051147,38.7599983215332 1.2350000143051147,35.970001220703125 1.2350000143051147,35.970001220703125 C1.2350000143051147,35.970001220703125 7.40500020980835,38.33000183105469 7.40500020980835,38.33000183105469 C7.534999847412109,38.380001068115234 7.664999961853027,38.4010009765625 7.795000076293945,38.4010009765625 C8.234999656677246,38.4010009765625 8.645000457763672,38.13999938964844 8.805000305175781,37.709999084472656 C9.024999618530273,37.13999938964844 8.744999885559082,36.52000045776367 8.1850004196167,36.29999923706055 C8.1850004196167,36.29999923706055 4.244999885559082,34.79999923706055 4.244999885559082,34.79999923706055 C4.244999885559082,34.79999923706055 8.1850004196167,33.290000915527344 8.1850004196167,33.290000915527344 C8.255000114440918,33.2599983215332 8.324999809265137,33.220001220703125 8.395000457763672,33.18000030517578 C8.404999732971191,33.16999816894531 8.414999961853027,33.15999984741211 8.425000190734863,33.15999984741211 C8.494999885559082,33.11000061035156 8.555000305175781,33.04999923706055 8.614999771118164,32.98099899291992 C8.625,32.970001220703125 8.645000457763672,32.95000076293945 8.654999732971191,32.941001892089844 C8.71500015258789,32.86000061035156 8.763999938964844,32.77000045776367 8.795000076293945,32.68000030517578 C8.805000305175781,32.68000030517578 8.805000305175781,32.66999816894531 8.805000305175781,32.65999984741211 C8.8149995803833,32.63999938964844 8.824999809265137,32.619998931884766 8.824999809265137,32.599998474121094 C8.835000038146973,32.560001373291016 8.854999542236328,32.52000045776367 8.854999542236328,32.4900016784668 C8.864999771118164,32.45000076293945 8.864999771118164,32.41999816894531 8.875,32.380001068115234 C8.875,32.380001068115234 8.875,32.16999816894531 8.875,32.16999816894531 C8.864999771118164,32.13999938964844 8.864999771118164,32.099998474121094 8.854999542236328,32.06999969482422 C8.854999542236328,32.029998779296875 8.835000038146973,31.989999771118164 8.824999809265137,31.950000762939453 C8.824999809265137,31.93000030517578 8.8149995803833,31.90999984741211 8.805000305175781,31.889999389648438 C8.805000305175781,31.8799991607666 8.805000305175781,31.8700008392334 8.795000076293945,31.860000610351562 C8.78499984741211,31.829999923706055 8.763999938964844,31.790000915527344 8.744999885559082,31.760000228881836 C8.725000381469727,31.731000900268555 8.71500015258789,31.700000762939453 8.694999694824219,31.670000076293945 C8.675000190734863,31.639999389648438 8.654999732971191,31.610000610351562 8.625,31.59000015258789 C8.604999542236328,31.559999465942383 8.585000038146973,31.530000686645508 8.5649995803833,31.510000228881836 C8.53499984741211,31.481000900268555 8.505000114440918,31.459999084472656 8.475000381469727,31.44099998474121 C8.454999923706055,31.420000076293945 8.425000190734863,31.400999069213867 8.404999732971191,31.3799991607666 C8.375,31.360000610351562 8.335000038146973,31.34000015258789 8.305000305175781,31.31999969482422 C8.274999618530273,31.309999465942383 8.244999885559082,31.290000915527344 8.21500015258789,31.280000686645508 C8.204999923706055,31.270000457763672 8.194999694824219,31.270000457763672 8.1850004196167,31.260000228881836 C8.1850004196167,31.260000228881836 4.244999885559082,29.760000228881836 4.244999885559082,29.760000228881836 C4.244999885559082,29.760000228881836 8.1850004196167,28.25 8.1850004196167,28.25 C8.744999885559082,28.040000915527344 9.024999618530273,27.40999984741211 8.805000305175781,26.850000381469727 C8.595000267028809,26.290000915527344 7.965000152587891,26.010000228881836 7.40500020980835,26.219999313354492 C7.40500020980835,26.219999313354492 1.2350000143051147,28.579999923706055 1.2350000143051147,28.579999923706055 C1.2350000143051147,28.579999923706055 1.2350000143051147,-2.950000047683716 1.2350000143051147,-2.950000047683716 C1.2350000143051147,-2.950000047683716 2.2639999389648438,-2.950000047683716 2.2639999389648438,-2.950000047683716 C2.944999933242798,-2.950000047683716 3.505000114440918,-3.509999990463257 3.505000114440918,-4.190000057220459 C3.505000114440918,-4.880000114440918 2.944999933242798,-5.429999828338623 2.2639999389648438,-5.429999828338623 C2.2639999389648438,-5.429999828338623 1.5049999952316284,-5.429999828338623 1.5049999952316284,-5.429999828338623 C1.5449999570846558,-5.519999980926514 1.5950000286102295,-5.610000133514404 1.625,-5.710000038146973 C2.5350000858306885,-9.279999732971191 5.235000133514404,-11.800000190734863 8.324999809265137,-11.979999542236328z M7.525000095367432,-27.799999237060547 C11.204999923706055,-27.799999237060547 14.194999694824219,-24.809999465942383 14.194999694824219,-21.1299991607666 C14.194999694824219,-17.450000762939453 11.204999923706055,-14.460000038146973 7.525000095367432,-14.460000038146973 C5.90500020980835,-14.460000038146973 4.385000228881836,-15.029999732971191 3.184999942779541,-16.059999465942383 C4.875,-17.1299991607666 5.994999885559082,-19 5.994999885559082,-21.1299991607666 C5.994999885559082,-23.260000228881836 4.875,-25.1299991607666 3.194999933242798,-26.190000534057617 C4.394999980926514,-27.219999313354492 5.914999961853027,-27.799999237060547 7.525000095367432,-27.799999237060547z M-0.004999999888241291,-17.6200008392334 C-1.9450000524520874,-17.6200008392334 -3.515000104904175,-19.190000534057617 -3.515000104904175,-21.1299991607666 C-3.515000104904175,-23.06999969482422 -1.9450000524520874,-24.639999389648438 -0.004999999888241291,-24.639999389648438 C1.934999942779541,-24.639999389648438 3.505000114440918,-23.06999969482422 3.505000114440918,-21.1299991607666 C3.505000114440918,-19.190000534057617 1.934999942779541,-17.6200008392334 -0.004999999888241291,-17.6200008392334z M-0.004999999888241291,-37.52000045776367 C2.565000057220459,-37.52000045776367 4.664999961853027,-35.41999816894531 4.664999961853027,-32.849998474121094 C4.664999961853027,-30.280000686645508 2.565000057220459,-28.190000534057617 -0.004999999888241291,-28.190000534057617 C-2.575000047683716,-28.190000534057617 -4.675000190734863,-30.280000686645508 -4.675000190734863,-32.849998474121094 C-4.675000190734863,-35.41999816894531 -2.575000047683716,-37.52000045776367 -0.004999999888241291,-37.52000045776367z M-7.534999847412109,-14.460000038146973 C-11.21500015258789,-14.460000038146973 -14.204999923706055,-17.450000762939453 -14.204999923706055,-21.1299991607666 C-14.204999923706055,-24.809999465942383 -11.21500015258789,-27.799999237060547 -7.534999847412109,-27.799999237060547 C-5.914999961853027,-27.799999237060547 -4.394999980926514,-27.219999313354492 -3.2049999237060547,-26.190000534057617 C-4.885000228881836,-25.1299991607666 -6.005000114440918,-23.260000228881836 -6.005000114440918,-21.1299991607666 C-6.005000114440918,-19 -4.885000228881836,-17.1299991607666 -3.194999933242798,-16.059999465942383 C-4.394999980926514,-15.029999732971191 -5.914999961853027,-14.460000038146973 -7.534999847412109,-14.460000038146973z M4.755000114440918,32.279998779296875 C4.755000114440918,32.279998779296875 1.2350000143051147,33.619998931884766 1.2350000143051147,33.619998931884766 C1.2350000143051147,33.619998931884766 1.2350000143051147,30.93000030517578 1.2350000143051147,30.93000030517578 C1.2350000143051147,30.93000030517578 4.755000114440918,32.279998779296875 4.755000114440918,32.279998779296875z M0.054999999701976776,-8.619999885559082 C-0.7950000166893005,-10.399999618530273 -2.055000066757202,-11.869999885559082 -3.5450000762939453,-12.890000343322754 C-2.434999942779541,-13.420000076293945 -1.4450000524520874,-14.199999809265137 -0.6150000095367432,-15.15999984741211 C-0.41499999165534973,-15.140000343322754 -0.20499999821186066,-15.130000114440918 -0.004999999888241291,-15.130000114440918 C0.19499999284744263,-15.130000114440918 0.4050000011920929,-15.140000343322754 0.6050000190734863,-15.15999984741211 C1.4550000429153442,-14.180000305175781 2.4749999046325684,-13.390000343322754 3.615000009536743,-12.850000381469727 C2.1449999809265137,-11.829999923706055 0.9049999713897705,-10.380000114440918 0.054999999701976776,-8.619999885559082z"></path></g></g></g></svg>