<svg width="309px" height="10px" viewBox="0 0 309 10"><title></title><desc>Created with Sketch.</desc><defs><linearGradient x1="0%" y1="0%" x2="100%" y2="0%" id="linearGradient-1"><stop stop-color="#FFFFFF" offset="0%"></stop><stop stop-color="#FFFFFF" stop-opacity="0" offset="100%"></stop></linearGradient><linearGradient x1="100%" y1="-1.11022302e-14%" x2="0%" y2="0%" id="linearGradient-2"><stop stop-color="#FFFFFF" offset="0%"></stop><stop stop-color="#FFFFFF" stop-opacity="0" offset="100%"></stop></linearGradient></defs><g id="FORMKIT" stroke="none" stroke-width="1" fill="none" fill-rule="evenodd" opacity="0.169410342"><g id="02B_MultistepForm_Desktop" transform="translate(-896.000000, -929.000000)" fill-rule="nonzero"><g id="Group-2" transform="translate(331.000000, 789.000000)"><g id="Group" transform="translate(565.000000, 140.000000)"><polygon fill="#FFFFFF" points="155 0 160 5 155 10 150 5"></polygon><rect fill="url(#linearGradient-1)" x="168" y="4" width="142" height="1"></rect><rect fill="url(#linearGradient-2)" x="0" y="4" width="142" height="1"></rect></g></g></g></g><svg width="309px" height="10px" viewBox="0 0 309 10"><title></title><desc>Created with Sketch.</desc><defs><linearGradient x1="0%" y1="0%" x2="100%" y2="0%" id="linearGradient-1"><stop stop-color="#FFFFFF" offset="0%"></stop><stop stop-color="#FFFFFF" stop-opacity="0" offset="100%"></stop></linearGradient><linearGradient x1="100%" y1="-1.11022302e-14%" x2="0%" y2="0%" id="linearGradient-2"><stop stop-color="#FFFFFF" offset="0%"></stop><stop stop-color="#FFFFFF" stop-opacity="0" offset="100%"></stop></linearGradient></defs><g id="FORMKIT" stroke="none" stroke-width="1" fill="none" fill-rule="evenodd" opacity="0.169410342"><g id="02B_MultistepForm_Desktop" transform="translate(-896.000000, -929.000000)" fill-rule="nonzero"><g id="Group-2" transform="translate(331.000000, 789.000000)"><g id="Group" transform="translate(565.000000, 140.000000)"><polygon fill="#FFFFFF" points="155 0 160 5 155 10 150 5"></polygon><rect fill="url(#linearGradient-1)" x="168" y="4" width="142" height="1"></rect><rect fill="url(#linearGradient-2)" x="0" y="4" width="142" height="1"></rect></g></g></g></g></svg></svg>